<?xml version="1.0" ?><!DOCTYPE svg  PUBLIC '-//W3C//DTD SVG 1.1//EN'  'http://www.w3.org/Graphics/SVG/1.1/DTD/svg11.dtd'><svg fill="#ffffff" style="enable-background:new 0 0 512 512;" version="1.1" viewBox="0 0 512 512" width="512px" xml:space="preserve" xmlns="http://www.w3.org/2000/svg" xmlns:xlink="http://www.w3.org/1999/xlink"><g id="D_-_34_x2C__call_x2C__phone_x2C__receiver_x2C__ring_x2C__signals"><g><path d="M299.758,338.522c-0.104,0-0.207,0.001-0.313,0.001c-18.838,0.081-36.584,7.499-49.974,20.888    c-1.794,1.794-3.615,3.844-5.567,6.265c-0.834,1.035-2.07,1.667-3.397,1.738c-1.33,0.07-2.624-0.426-3.563-1.366l-94.076-94.076    c-0.951-0.95-1.447-2.263-1.363-3.604c0.084-1.342,0.74-2.583,1.801-3.407c2.066-1.606,4.094-3.41,6.199-5.517    c27.616-27.616,27.847-72.319,0.515-99.65c-13.573-13.572-31.431-20.349-49.352-20.349c-18.167,0-36.397,6.961-50.299,20.863    c-24.518,24.519-14.598,64.316-1.958,93.387c16.601,38.182,47.551,81.018,87.148,120.615    c39.466,39.466,82.072,70.236,119.969,86.642c7.044,3.051,14.729,5.931,22.675,8.193H44.673c-2.587,0-4.686,2.098-4.686,4.686    s2.098,4.686,4.686,4.686h262.388c2.588,0,4.685-2.098,4.685-4.686c0-0.031-0.008-0.061-0.009-0.092    c13.672-0.581,26.605-4.849,36.909-15.152c13.392-13.393,20.815-31.134,20.906-49.958c0.089-18.807-7.153-36.453-20.392-49.693    C335.99,345.765,318.456,338.522,299.758,338.522z"/><path d="M261.561,211.451c-4.825,4.824-7.481,11.238-7.481,18.061c0,6.822,2.657,13.235,7.48,18.06    c4.823,4.824,11.237,7.48,18.06,7.48s13.236-2.656,18.061-7.48c4.824-4.825,7.48-11.238,7.48-18.06    c0-6.823-2.656-13.237-7.48-18.061s-11.238-7.48-18.061-7.48S266.384,206.627,261.561,211.451z"/><path d="M327.141,282.695c0.914,0.915,2.113,1.373,3.313,1.373s2.398-0.458,3.313-1.373c29.326-29.325,29.326-77.042,0-106.368    c-14.205-14.206-33.092-22.029-53.183-22.029s-38.979,7.824-53.184,22.029c-1.83,1.829-1.83,4.796,0,6.626    c1.83,1.829,4.796,1.829,6.626,0c12.436-12.437,28.971-19.285,46.558-19.285s34.121,6.848,46.558,19.285    c25.672,25.671,25.672,67.442,0,93.115C325.311,277.899,325.311,280.866,327.141,282.695z"/><path d="M358.951,312.565c1.199,0,2.398-0.458,3.313-1.373c45.04-45.039,45.04-118.323,0-163.362    c-45.039-45.04-118.323-45.039-163.362,0c-1.83,1.829-1.83,4.796,0,6.626c1.83,1.829,4.796,1.829,6.626,0    c41.385-41.386,108.725-41.386,150.111,0c41.385,41.385,41.385,108.724,0,150.11c-1.83,1.829-1.83,4.796,0,6.625    C356.553,312.107,357.753,312.565,358.951,312.565z"/><path d="M390.762,119.332c-60.753-60.752-159.605-60.751-220.358,0c-1.83,1.831-1.83,4.797,0,6.626c1.831,1.83,4.796,1.83,6.626,0    c57.098-57.099,150.005-57.1,207.105,0c57.099,57.1,57.099,150.007,0,207.106c-1.83,1.829-1.83,4.796,0,6.625    c0.915,0.915,2.114,1.373,3.313,1.373c1.198,0,2.398-0.458,3.313-1.373C451.515,278.938,451.515,180.086,390.762,119.332z"/><path d="M419.259,90.835c-76.465-76.466-200.886-76.466-277.353,0c-1.83,1.83-1.83,4.797,0,6.626c1.83,1.83,4.796,1.83,6.626,0    c72.813-72.811,191.286-72.813,264.1,0c35.271,35.272,54.697,82.168,54.697,132.05c0,49.882-19.426,96.777-54.697,132.05    c-1.83,1.829-1.83,4.796,0,6.626c0.914,0.915,2.114,1.372,3.313,1.372c1.199,0,2.399-0.457,3.313-1.372    c37.042-37.041,57.442-86.291,57.442-138.676C476.701,177.126,456.301,127.877,419.259,90.835z"/></g></g><g id="Layer_1"/></svg>